<svg xmlns="http://www.w3.org/2000/svg" xmlns:xlink="http://www.w3.org/1999/xlink" width="900" zoomAndPan="magnify" viewBox="0 0 675 225" height="300" preserveAspectRatio="xMidYMid meet" version="1.0"><defs><clipPath id="301effb06e"><path d="M 62.148438 40.085938 L 129 40.085938 L 129 173.585938 L 62.148438 173.585938 Z M 62.148438 40.085938 " clip-rule="nonzero"/></clipPath><clipPath id="97854d9268"><path d="M 375 74 L 612.648438 74 L 612.648438 125 L 375 125 Z M 375 74 " clip-rule="nonzero"/></clipPath></defs><rect x="-67.5" width="810" fill="#ffffff" y="-22.5" height="270" fill-opacity="1"/><rect x="-67.5" width="810" fill="#ffffff" y="-22.5" height="270" fill-opacity="1"/><g clip-path="url(#301effb06e)"><path fill="#f05a28" d="M 128.84375 173.242188 C 92.375 173.242188 62.679688 143.480469 62.679688 106.929688 C 62.679688 70.378906 92.375 40.617188 128.84375 40.617188 L 128.84375 49.265625 C 97.191406 49.265625 71.359375 75.101562 71.359375 106.875 C 71.359375 138.601562 97.136719 164.488281 128.84375 164.488281 Z M 128.84375 173.242188 " fill-opacity="1" fill-rule="nonzero"/></g><path fill="#f05a28" d="M 94.226562 148.519531 C 83.109375 139.238281 76.335938 126.132812 75.117188 111.703125 C 73.898438 97.273438 78.292969 83.214844 87.554688 72.128906 C 96.820312 61.042969 109.894531 54.199219 124.292969 52.980469 C 138.742188 51.707031 152.714844 56.160156 163.78125 65.445312 L 158.273438 72.078125 C 148.957031 64.226562 137.152344 60.511719 125.085938 61.574219 C 113.015625 62.632812 102.007812 68.363281 94.226562 77.644531 C 86.390625 86.984375 82.6875 98.8125 83.746094 110.90625 C 84.804688 123.003906 90.519531 134.039062 99.785156 141.835938 Z M 94.226562 148.519531 " fill-opacity="1" fill-rule="nonzero"/><path fill="#f05a28" d="M 109.046875 144.277344 C 88.5625 133.402344 80.675781 107.832031 91.527344 87.25 C 102.378906 66.664062 127.890625 58.8125 148.429688 69.636719 L 144.351562 77.328125 C 128.050781 68.734375 107.777344 74.992188 99.148438 91.332031 C 90.574219 107.671875 96.820312 127.988281 113.121094 136.582031 Z M 109.046875 144.277344 " fill-opacity="1" fill-rule="nonzero"/><path fill="#f05a28" d="M 128.84375 137.0625 C 112.277344 137.0625 98.777344 123.535156 98.777344 106.929688 C 98.777344 90.324219 112.277344 76.796875 128.84375 76.796875 L 128.84375 85.445312 C 117.09375 85.445312 107.40625 95.046875 107.40625 106.929688 C 107.40625 118.757812 116.988281 128.414062 128.84375 128.414062 Z M 128.84375 137.0625 " fill-opacity="1" fill-rule="nonzero"/><path fill="#000000" d="M 136.835938 99.714844 C 135.832031 98.652344 134.824219 97.804688 133.660156 97.167969 C 132.550781 96.53125 131.4375 96.214844 130.273438 96.214844 C 128.683594 96.214844 127.308594 96.53125 126.039062 97.117188 C 124.769531 97.699219 123.761719 98.496094 122.863281 99.398438 C 121.960938 100.40625 121.273438 101.464844 120.851562 102.738281 C 120.375 104.011719 120.164062 105.285156 120.164062 106.664062 C 120.164062 108.042969 120.375 109.316406 120.851562 110.589844 C 121.328125 111.863281 122.015625 112.925781 122.863281 113.933594 C 123.710938 114.941406 124.769531 115.628906 126.039062 116.214844 C 127.308594 116.796875 128.683594 117.113281 130.273438 117.113281 C 131.648438 117.113281 132.867188 116.851562 134.03125 116.265625 C 135.195312 115.683594 136.148438 114.886719 136.941406 113.878906 L 142.660156 120.085938 C 141.8125 120.988281 140.804688 121.730469 139.695312 122.3125 C 138.53125 122.949219 137.472656 123.480469 136.308594 123.851562 C 135.144531 124.222656 134.085938 124.542969 133.027344 124.699219 C 131.96875 124.859375 131.066406 124.964844 130.324219 124.964844 C 127.730469 124.964844 125.351562 124.542969 123.019531 123.640625 C 120.746094 122.738281 118.734375 121.570312 117.09375 119.925781 C 115.453125 118.28125 114.074219 116.425781 113.121094 114.195312 C 112.117188 111.96875 111.640625 109.421875 111.640625 106.664062 C 111.640625 103.90625 112.117188 101.414062 113.121094 99.132812 C 114.128906 96.902344 115.398438 94.941406 117.09375 93.402344 C 118.734375 91.757812 120.746094 90.589844 123.019531 89.6875 C 125.296875 88.785156 127.785156 88.363281 130.324219 88.363281 C 132.496094 88.363281 134.773438 88.785156 136.941406 89.636719 C 139.164062 90.484375 141.125 91.808594 142.765625 93.667969 Z M 136.835938 99.714844 " fill-opacity="1" fill-rule="nonzero"/><path fill="#000000" d="M 150.441406 109.6875 C 150.703125 112.289062 151.765625 114.355469 153.457031 115.789062 C 155.152344 117.273438 157.269531 117.964844 159.703125 117.964844 C 161.820312 117.964844 163.671875 117.484375 165.101562 116.585938 C 166.53125 115.683594 167.800781 114.570312 168.96875 113.1875 L 175.105469 117.910156 C 173.09375 120.402344 170.820312 122.207031 168.382812 123.269531 C 165.898438 124.328125 163.304688 124.914062 160.550781 124.914062 C 157.957031 124.914062 155.574219 124.488281 153.246094 123.585938 C 150.96875 122.683594 148.957031 121.519531 147.316406 119.875 C 145.675781 118.230469 144.300781 116.371094 143.347656 114.144531 C 142.339844 111.917969 141.867188 109.371094 141.867188 106.609375 C 141.867188 103.851562 142.339844 101.359375 143.347656 99.078125 C 144.351562 96.851562 145.625 94.886719 147.316406 93.347656 C 148.957031 91.703125 150.96875 90.539062 153.246094 89.636719 C 155.523438 88.734375 158.007812 88.308594 160.550781 88.308594 C 162.933594 88.308594 165.15625 88.734375 167.113281 89.582031 C 169.074219 90.429688 170.820312 91.652344 172.195312 93.242188 C 173.625 94.886719 174.683594 96.796875 175.476562 99.132812 C 176.273438 101.464844 176.695312 104.117188 176.695312 107.246094 L 176.695312 109.636719 L 150.441406 109.636719 Z M 168.066406 103.164062 C 168.015625 100.617188 167.21875 98.546875 165.738281 97.117188 C 164.203125 95.628906 162.085938 94.941406 159.386719 94.941406 C 156.792969 94.941406 154.726562 95.683594 153.246094 97.167969 C 151.710938 98.707031 150.8125 100.667969 150.492188 103.164062 Z M 168.066406 103.164062 " fill-opacity="1" fill-rule="nonzero"/><path fill="#000000" d="M 180.398438 89.265625 L 188.976562 89.265625 L 188.976562 94.726562 L 189.132812 94.726562 C 190.085938 92.710938 191.410156 91.121094 193.210938 90.007812 C 194.957031 88.894531 197.019531 88.363281 199.296875 88.363281 C 199.828125 88.363281 200.355469 88.414062 200.886719 88.519531 C 201.414062 88.628906 201.890625 88.734375 202.472656 88.894531 L 202.472656 97.273438 C 201.730469 97.0625 201.042969 96.902344 200.355469 96.796875 C 199.667969 96.691406 198.980469 96.636719 198.34375 96.636719 C 196.332031 96.636719 194.746094 97.007812 193.476562 97.804688 C 192.257812 98.546875 191.355469 99.449219 190.667969 100.351562 C 190.035156 101.359375 189.558594 102.261719 189.347656 103.214844 C 189.132812 104.222656 189.027344 104.859375 189.027344 105.390625 L 189.027344 124.011719 L 180.453125 124.011719 L 180.453125 89.265625 Z M 180.398438 89.265625 " fill-opacity="1" fill-rule="nonzero"/><path fill="#000000" d="M 210.996094 109.6875 C 211.261719 112.289062 212.320312 114.355469 214.011719 115.789062 C 215.707031 117.273438 217.824219 117.964844 220.257812 117.964844 C 222.375 117.964844 224.230469 117.484375 225.65625 116.585938 C 227.140625 115.683594 228.355469 114.570312 229.523438 113.1875 L 235.660156 117.910156 C 233.703125 120.402344 231.375 122.207031 228.941406 123.269531 C 226.453125 124.328125 223.859375 124.914062 221.105469 124.914062 C 218.511719 124.914062 216.128906 124.488281 213.800781 123.585938 C 211.523438 122.683594 209.511719 121.519531 207.871094 119.875 C 206.230469 118.230469 204.855469 116.371094 203.902344 114.144531 C 202.898438 111.917969 202.421875 109.371094 202.421875 106.609375 C 202.421875 103.851562 202.898438 101.359375 203.902344 99.078125 C 204.90625 96.851562 206.179688 94.886719 207.871094 93.347656 C 209.511719 91.703125 211.523438 90.539062 213.800781 89.636719 C 216.078125 88.734375 218.566406 88.308594 221.105469 88.308594 C 223.488281 88.308594 225.710938 88.734375 227.667969 89.582031 C 229.628906 90.429688 231.375 91.652344 232.75 93.242188 C 234.179688 94.886719 235.238281 96.796875 236.03125 99.132812 C 236.828125 101.464844 237.25 104.117188 237.25 107.246094 L 237.25 109.636719 L 210.996094 109.636719 Z M 228.570312 103.164062 C 228.515625 100.617188 227.722656 98.546875 226.238281 97.117188 C 224.703125 95.628906 222.585938 94.941406 219.886719 94.941406 C 217.292969 94.941406 215.230469 95.683594 213.746094 97.167969 C 212.210938 98.707031 211.3125 100.667969 210.996094 103.164062 Z M 228.570312 103.164062 " fill-opacity="1" fill-rule="nonzero"/><path fill="#000000" d="M 239.472656 69.265625 L 248.046875 69.265625 L 248.046875 93.667969 L 248.261719 93.667969 C 248.683594 93.082031 249.265625 92.5 249.902344 91.917969 C 250.589844 91.28125 251.382812 90.75 252.335938 90.21875 C 253.289062 89.6875 254.347656 89.265625 255.617188 88.894531 C 256.886719 88.574219 258.265625 88.363281 259.957031 88.363281 C 262.394531 88.363281 264.667969 88.839844 266.679688 89.792969 C 268.691406 90.75 270.492188 92.023438 271.921875 93.667969 C 273.402344 95.3125 274.515625 97.222656 275.308594 99.449219 C 276.15625 101.675781 276.527344 104.066406 276.527344 106.609375 C 276.527344 109.15625 276.15625 111.597656 275.363281 113.773438 C 274.566406 116 273.507812 117.964844 271.972656 119.554688 C 270.492188 121.199219 268.691406 122.472656 266.628906 123.429688 C 264.5625 124.382812 262.128906 124.859375 259.535156 124.859375 C 257.101562 124.859375 254.824219 124.382812 252.707031 123.375 C 250.640625 122.417969 248.949219 120.882812 247.730469 118.707031 L 247.570312 118.707031 L 247.570312 123.90625 L 239.367188 123.90625 Z M 267.949219 106.664062 C 267.949219 105.285156 267.738281 104.011719 267.261719 102.738281 C 266.785156 101.464844 266.097656 100.40625 265.25 99.398438 C 264.351562 98.441406 263.347656 97.699219 262.074219 97.117188 C 260.804688 96.53125 259.429688 96.214844 257.839844 96.214844 C 256.253906 96.214844 254.875 96.53125 253.605469 97.117188 C 252.335938 97.699219 251.332031 98.496094 250.429688 99.398438 C 249.53125 100.40625 248.84375 101.464844 248.472656 102.738281 C 247.996094 104.011719 247.785156 105.285156 247.785156 106.664062 C 247.785156 108.042969 247.996094 109.316406 248.472656 110.589844 C 248.949219 111.863281 249.636719 112.925781 250.429688 113.933594 C 251.332031 114.941406 252.335938 115.628906 253.605469 116.214844 C 254.875 116.796875 256.253906 117.113281 257.839844 117.113281 C 259.429688 117.113281 260.804688 116.796875 262.074219 116.214844 C 263.347656 115.628906 264.351562 114.832031 265.25 113.933594 C 266.152344 112.976562 266.839844 111.863281 267.261719 110.589844 C 267.738281 109.316406 267.949219 108.042969 267.949219 106.664062 Z M 267.949219 106.664062 " fill-opacity="1" fill-rule="nonzero"/><path fill="#000000" d="M 280.335938 89.265625 L 288.914062 89.265625 L 288.914062 94.726562 L 289.070312 94.726562 C 290.023438 92.710938 291.347656 91.121094 293.148438 90.007812 C 294.894531 88.894531 296.957031 88.363281 299.234375 88.363281 C 299.761719 88.363281 300.292969 88.414062 300.820312 88.519531 C 301.351562 88.628906 301.828125 88.734375 302.410156 88.894531 L 302.410156 97.273438 C 301.667969 97.0625 300.980469 96.902344 300.292969 96.796875 C 299.605469 96.691406 298.917969 96.636719 298.28125 96.636719 C 296.269531 96.636719 294.683594 97.007812 293.410156 97.804688 C 292.195312 98.546875 291.292969 99.449219 290.605469 100.351562 C 289.972656 101.359375 289.496094 102.261719 289.28125 103.214844 C 289.070312 104.222656 288.964844 104.859375 288.964844 105.390625 L 288.964844 124.011719 L 280.390625 124.011719 L 280.390625 89.265625 Z M 280.335938 89.265625 " fill-opacity="1" fill-rule="nonzero"/><path fill="#000000" d="M 325.382812 119.238281 L 325.171875 119.238281 C 323.902344 121.199219 322.367188 122.632812 320.40625 123.585938 C 318.5 124.488281 316.382812 124.964844 314.109375 124.964844 C 312.519531 124.964844 310.984375 124.753906 309.449219 124.328125 C 307.914062 123.90625 306.59375 123.214844 305.425781 122.417969 C 304.261719 121.519531 303.308594 120.511719 302.621094 119.183594 C 301.878906 117.859375 301.511719 116.371094 301.511719 114.621094 C 301.511719 112.765625 301.828125 111.121094 302.515625 109.792969 C 303.203125 108.46875 304.105469 107.355469 305.214844 106.453125 C 306.378906 105.550781 307.652344 104.808594 309.132812 104.332031 C 310.613281 103.800781 312.148438 103.375 313.789062 103.109375 C 315.429688 102.84375 317.019531 102.6875 318.660156 102.578125 C 320.300781 102.527344 321.835938 102.472656 323.265625 102.472656 L 325.382812 102.472656 L 325.382812 101.519531 C 325.382812 99.34375 324.640625 97.699219 323.160156 96.585938 C 321.675781 95.472656 319.773438 94.941406 317.496094 94.941406 C 315.695312 94.941406 314.003906 95.257812 312.414062 95.949219 C 310.828125 96.585938 309.503906 97.488281 308.339844 98.601562 L 303.785156 94.039062 C 305.691406 92.074219 307.96875 90.644531 310.507812 89.742188 C 313.050781 88.839844 315.695312 88.414062 318.449219 88.414062 C 320.882812 88.414062 322.949219 88.679688 324.589844 89.265625 C 326.230469 89.847656 327.660156 90.539062 328.769531 91.386719 C 329.882812 92.289062 330.675781 93.242188 331.3125 94.410156 C 331.894531 95.578125 332.371094 96.691406 332.632812 97.859375 C 332.898438 99.023438 333.058594 100.140625 333.109375 101.253906 C 333.164062 102.367188 333.164062 103.269531 333.164062 104.117188 L 333.164062 124.117188 L 325.382812 124.117188 Z M 324.855469 108.519531 L 323.105469 108.519531 C 321.890625 108.519531 320.566406 108.574219 319.082031 108.679688 C 317.601562 108.785156 316.226562 109 314.902344 109.371094 C 313.578125 109.742188 312.46875 110.273438 311.566406 111.015625 C 310.667969 111.703125 310.191406 112.660156 310.191406 113.933594 C 310.191406 114.78125 310.351562 115.46875 310.71875 116 C 311.089844 116.585938 311.566406 117.0625 312.148438 117.433594 C 312.730469 117.804688 313.367188 118.121094 314.054688 118.28125 C 314.796875 118.441406 315.539062 118.546875 316.171875 118.546875 C 319.136719 118.546875 321.308594 117.804688 322.734375 116.425781 C 324.164062 114.992188 324.855469 113.03125 324.855469 110.589844 Z M 324.855469 108.519531 " fill-opacity="1" fill-rule="nonzero"/><path fill="#000000" d="M 356.402344 98.917969 C 354.707031 96.585938 352.484375 95.363281 349.679688 95.363281 C 348.515625 95.363281 347.402344 95.683594 346.292969 96.265625 C 345.179688 96.851562 344.652344 97.804688 344.652344 99.078125 C 344.652344 100.140625 345.125 100.882812 346.027344 101.359375 C 346.925781 101.835938 348.039062 102.261719 349.46875 102.632812 C 350.898438 102.949219 352.324219 103.320312 353.964844 103.695312 C 355.609375 104.066406 357.035156 104.648438 358.464844 105.339844 C 359.894531 106.082031 361.007812 107.089844 361.90625 108.414062 C 362.804688 109.742188 363.28125 111.492188 363.28125 113.773438 C 363.28125 115.839844 362.859375 117.59375 361.960938 119.023438 C 361.058594 120.457031 359.949219 121.570312 358.519531 122.472656 C 357.089844 123.375 355.5 124.011719 353.753906 124.328125 C 352.007812 124.699219 350.207031 124.914062 348.460938 124.914062 C 345.816406 124.914062 343.328125 124.542969 341.050781 123.746094 C 338.828125 122.949219 336.761719 121.570312 335.015625 119.554688 L 340.734375 114.144531 C 341.84375 115.417969 343.007812 116.425781 344.28125 117.222656 C 345.550781 118.015625 347.085938 118.441406 348.9375 118.441406 C 349.574219 118.441406 350.207031 118.386719 350.84375 118.230469 C 351.53125 118.070312 352.167969 117.859375 352.695312 117.484375 C 353.277344 117.167969 353.753906 116.691406 354.125 116.214844 C 354.496094 115.683594 354.65625 115.097656 354.65625 114.460938 C 354.65625 113.242188 354.179688 112.394531 353.277344 111.808594 C 352.378906 111.226562 351.265625 110.75 349.835938 110.378906 C 348.410156 110.007812 346.980469 109.6875 345.339844 109.371094 C 343.699219 109.050781 342.269531 108.519531 340.839844 107.832031 C 339.410156 107.140625 338.296875 106.1875 337.398438 104.914062 C 336.5 103.640625 336.023438 101.941406 336.023438 99.714844 C 336.023438 97.804688 336.445312 96.109375 337.238281 94.726562 C 338.035156 93.296875 339.039062 92.128906 340.363281 91.226562 C 341.6875 90.273438 343.117188 89.582031 344.808594 89.210938 C 346.449219 88.785156 348.195312 88.574219 349.890625 88.574219 C 352.167969 88.574219 354.496094 89 356.71875 89.792969 C 358.941406 90.589844 360.792969 91.917969 362.171875 93.878906 Z M 356.402344 98.917969 " fill-opacity="1" fill-rule="nonzero"/><g clip-path="url(#97854d9268)"><path fill="#000000" d="M 375.191406 123.375 L 375.191406 88.679688 L 380.0625 88.679688 L 380.0625 123.375 Z M 375.191406 82.261719 L 375.191406 75.152344 L 380.0625 75.152344 L 380.0625 82.261719 Z M 384.136719 123.375 L 384.136719 88.679688 L 388.953125 88.679688 L 388.953125 95.417969 L 387.84375 95.152344 C 388.691406 92.925781 390.121094 91.121094 392.023438 89.847656 C 393.984375 88.574219 396.3125 87.886719 398.855469 87.886719 C 401.289062 87.886719 403.511719 88.46875 405.417969 89.582031 C 407.375 90.695312 408.964844 92.234375 410.074219 94.25 C 411.238281 96.214844 411.820312 98.386719 411.820312 100.828125 L 411.820312 123.375 L 407.003906 123.375 L 407.003906 102.738281 C 407.003906 100.617188 406.632812 98.8125 405.839844 97.378906 C 405.097656 95.894531 404.039062 94.78125 402.664062 94.039062 C 401.339844 93.242188 399.804688 92.820312 398.007812 92.820312 C 396.261719 92.820312 394.671875 93.242188 393.296875 94.039062 C 391.917969 94.835938 390.859375 95.949219 390.066406 97.488281 C 389.273438 98.972656 388.902344 100.722656 388.902344 102.792969 L 388.902344 123.375 Z M 418.914062 123.375 L 418.914062 93.5625 L 411.980469 93.5625 L 411.980469 88.734375 L 418.914062 88.734375 L 418.914062 85.605469 C 418.914062 83.164062 419.445312 81.148438 420.503906 79.503906 C 421.5625 77.804688 422.992188 76.53125 424.789062 75.683594 C 426.539062 74.835938 428.441406 74.410156 430.453125 74.410156 C 430.878906 74.410156 431.355469 74.464844 431.9375 74.515625 C 432.519531 74.570312 432.941406 74.621094 433.3125 74.730469 L 433.3125 79.132812 C 432.996094 79.027344 432.625 79.027344 432.09375 79.027344 C 431.566406 78.972656 431.195312 78.972656 430.984375 78.972656 C 428.917969 78.972656 427.171875 79.449219 425.796875 80.457031 C 424.421875 81.464844 423.730469 83.164062 423.730469 85.65625 L 423.730469 88.785156 L 432.199219 88.785156 L 432.199219 93.613281 L 423.730469 93.613281 L 423.730469 123.375 Z M 448.714844 124.171875 C 445.488281 124.171875 442.574219 123.375 439.929688 121.835938 C 437.335938 120.246094 435.324219 118.070312 433.789062 115.3125 C 432.308594 112.550781 431.511719 109.421875 431.511719 105.921875 C 431.511719 102.421875 432.253906 99.34375 433.683594 96.691406 C 435.164062 93.984375 437.125 91.863281 439.613281 90.273438 C 442.152344 88.734375 445.011719 87.9375 448.132812 87.9375 C 450.621094 87.9375 452.84375 88.414062 454.804688 89.371094 C 456.761719 90.273438 458.457031 91.546875 459.832031 93.136719 C 461.207031 94.675781 462.265625 96.480469 463.007812 98.441406 C 463.75 100.40625 464.121094 102.367188 464.121094 104.4375 C 464.121094 104.859375 464.121094 105.339844 464.066406 105.921875 C 464.011719 106.453125 463.960938 106.984375 463.855469 107.566406 L 434.582031 107.566406 L 434.582031 103.058594 L 461.050781 103.058594 L 458.71875 105.019531 C 459.089844 102.632812 458.828125 100.511719 457.875 98.652344 C 456.972656 96.742188 455.648438 95.257812 453.957031 94.199219 C 452.210938 93.082031 450.304688 92.5 448.132812 92.5 C 445.964844 92.5 444.003906 93.082031 442.152344 94.199219 C 440.351562 95.3125 438.921875 96.902344 437.863281 98.917969 C 436.804688 100.882812 436.4375 103.269531 436.648438 106.027344 C 436.4375 108.785156 436.859375 111.226562 437.917969 113.296875 C 439.03125 115.3125 440.566406 116.902344 442.417969 118.015625 C 444.375 119.128906 446.441406 119.714844 448.609375 119.714844 C 451.152344 119.714844 453.269531 119.128906 455.015625 117.910156 C 456.761719 116.691406 458.136719 115.207031 459.195312 113.402344 L 463.324219 115.578125 C 462.636719 117.113281 461.578125 118.601562 460.148438 119.925781 C 458.71875 121.199219 457.027344 122.261719 455.066406 123.109375 C 453.214844 123.746094 451.097656 124.171875 448.714844 124.171875 Z M 466.871094 123.375 L 466.871094 88.679688 L 471.742188 88.679688 L 471.742188 94.355469 L 471.105469 93.507812 C 471.902344 91.863281 473.171875 90.589844 474.8125 89.636719 C 476.503906 88.679688 478.515625 88.203125 480.898438 88.203125 L 483.070312 88.203125 L 483.070312 93.082031 L 480.050781 93.082031 C 477.5625 93.082031 475.554688 93.878906 474.070312 95.417969 C 472.589844 96.957031 471.792969 99.183594 471.792969 101.996094 L 471.792969 123.375 Z M 498.632812 124.171875 C 495.402344 124.171875 492.492188 123.375 489.84375 121.835938 C 487.25 120.246094 485.238281 118.070312 483.703125 115.3125 C 482.167969 112.550781 481.429688 109.421875 481.429688 105.921875 C 481.429688 102.421875 482.167969 99.34375 483.597656 96.691406 C 485.082031 93.984375 487.039062 91.863281 489.527344 90.273438 C 492.066406 88.734375 494.925781 87.9375 498.050781 87.9375 C 500.539062 87.9375 502.761719 88.414062 504.71875 89.371094 C 506.675781 90.273438 508.371094 91.546875 509.746094 93.136719 C 511.125 94.675781 512.183594 96.480469 512.921875 98.441406 C 513.664062 100.40625 514.035156 102.367188 514.035156 104.4375 C 514.035156 104.859375 514.035156 105.339844 513.980469 105.921875 C 513.929688 106.453125 513.875 106.984375 513.769531 107.566406 L 484.550781 107.566406 L 484.550781 103.058594 L 511.019531 103.058594 L 508.6875 105.019531 C 509.058594 102.632812 508.792969 100.511719 507.84375 98.652344 C 506.941406 96.742188 505.617188 95.257812 503.925781 94.199219 C 502.179688 93.082031 500.273438 92.5 498.101562 92.5 C 495.933594 92.5 493.972656 93.082031 492.121094 94.199219 C 490.320312 95.3125 488.890625 96.902344 487.832031 98.917969 C 486.773438 100.882812 486.402344 103.269531 486.617188 106.027344 C 486.402344 108.785156 486.828125 111.226562 487.886719 113.296875 C 488.996094 115.3125 490.53125 116.902344 492.386719 118.015625 C 494.34375 119.128906 496.410156 119.714844 498.578125 119.714844 C 501.121094 119.714844 503.238281 119.128906 504.984375 117.910156 C 506.730469 116.691406 508.105469 115.207031 509.164062 113.402344 L 513.292969 115.578125 C 512.605469 117.113281 511.546875 118.601562 510.117188 119.925781 C 508.6875 121.199219 506.996094 122.261719 505.035156 123.109375 C 503.132812 123.746094 501.011719 124.171875 498.632812 124.171875 Z M 516.789062 123.375 L 516.789062 88.679688 L 521.605469 88.679688 L 521.605469 95.417969 L 520.492188 95.152344 C 521.339844 92.925781 522.769531 91.121094 524.675781 89.847656 C 526.632812 88.574219 528.960938 87.886719 531.503906 87.886719 C 533.9375 87.886719 536.160156 88.46875 538.066406 89.582031 C 540.023438 90.695312 541.613281 92.234375 542.726562 94.25 C 543.890625 96.214844 544.472656 98.386719 544.472656 100.828125 L 544.472656 123.375 L 539.65625 123.375 L 539.65625 102.738281 C 539.65625 100.617188 539.285156 98.8125 538.488281 97.378906 C 537.75 95.894531 536.691406 94.78125 535.3125 94.039062 C 533.992188 93.242188 532.457031 92.820312 530.65625 92.820312 C 528.910156 92.820312 527.320312 93.242188 525.945312 94.039062 C 524.570312 94.835938 523.511719 95.949219 522.714844 97.488281 C 521.921875 98.972656 521.550781 100.722656 521.550781 102.792969 L 521.550781 123.375 Z M 563.84375 124.171875 C 560.457031 124.171875 557.441406 123.375 554.847656 121.785156 C 552.253906 120.191406 550.242188 118.015625 548.757812 115.3125 C 547.277344 112.550781 546.589844 109.421875 546.589844 105.976562 C 546.589844 102.527344 547.328125 99.449219 548.757812 96.742188 C 550.242188 94.039062 552.253906 91.917969 554.847656 90.324219 C 557.441406 88.734375 560.402344 87.9375 563.84375 87.9375 C 566.015625 87.9375 568.027344 88.308594 569.933594 89.105469 C 571.835938 89.902344 573.53125 90.960938 574.960938 92.289062 C 576.441406 93.5625 577.5 95.097656 578.242188 96.796875 L 573.847656 99.078125 C 573.003906 97.222656 571.679688 95.734375 569.933594 94.570312 C 568.183594 93.402344 566.121094 92.820312 563.84375 92.820312 C 561.570312 92.820312 559.503906 93.402344 557.652344 94.570312 C 555.851562 95.683594 554.421875 97.273438 553.3125 99.289062 C 552.253906 101.253906 551.777344 103.535156 551.777344 106.082031 C 551.777344 108.574219 552.304688 110.855469 553.3125 112.871094 C 554.371094 114.832031 555.851562 116.425781 557.652344 117.59375 C 559.503906 118.757812 561.570312 119.34375 563.84375 119.34375 C 566.121094 119.34375 568.132812 118.757812 569.824219 117.59375 C 571.574219 116.425781 572.949219 114.886719 573.847656 112.925781 L 578.242188 115.3125 C 577.5 117.007812 576.390625 118.496094 574.960938 119.820312 C 573.476562 121.148438 571.835938 122.207031 569.933594 123.003906 C 567.972656 123.746094 565.960938 124.171875 563.84375 124.171875 Z M 596.664062 124.171875 C 593.433594 124.171875 590.523438 123.375 587.875 121.835938 C 585.28125 120.246094 583.269531 118.070312 581.734375 115.3125 C 580.253906 112.550781 579.460938 109.421875 579.460938 105.921875 C 579.460938 102.421875 580.199219 99.34375 581.628906 96.691406 C 583.113281 93.984375 585.070312 91.863281 587.558594 90.273438 C 590.097656 88.734375 592.957031 87.9375 596.082031 87.9375 C 598.570312 87.9375 600.792969 88.414062 602.75 89.371094 C 604.707031 90.273438 606.402344 91.546875 607.777344 93.136719 C 609.15625 94.675781 610.214844 96.480469 610.953125 98.441406 C 611.695312 100.40625 612.066406 102.367188 612.066406 104.4375 C 612.066406 104.859375 612.066406 105.339844 612.011719 105.921875 C 611.960938 106.453125 611.90625 106.984375 611.800781 107.566406 L 582.53125 107.566406 L 582.53125 103.058594 L 608.996094 103.058594 L 606.667969 105.019531 C 607.039062 102.632812 606.773438 100.511719 605.820312 98.652344 C 604.921875 96.742188 603.597656 95.257812 601.902344 94.199219 C 600.210938 93.082031 598.25 92.5 596.082031 92.5 C 593.910156 92.5 591.953125 93.082031 590.097656 94.199219 C 588.300781 95.3125 586.871094 96.902344 585.8125 98.917969 C 584.753906 100.882812 584.382812 103.269531 584.59375 106.027344 C 584.382812 108.785156 584.804688 111.226562 585.863281 113.296875 C 586.976562 115.3125 588.511719 116.902344 590.363281 118.015625 C 592.324219 119.128906 594.386719 119.714844 596.558594 119.714844 C 599.097656 119.714844 601.214844 119.128906 602.960938 117.910156 C 604.707031 116.691406 606.085938 115.207031 607.144531 113.402344 L 611.273438 115.578125 C 610.585938 117.113281 609.527344 118.601562 608.097656 119.925781 C 606.667969 121.199219 604.972656 122.261719 603.015625 123.109375 C 601.164062 123.746094 599.046875 124.171875 596.664062 124.171875 Z M 596.664062 124.171875 " fill-opacity="1" fill-rule="nonzero"/></g></svg>